# xmcd CD database file
#
# Track frame offsets:
#	150
#	14742
#	31324
#	45201
#	59753
#	77979
#	94867
#	113447
#	130048
#	146695
#	166094
#	183082
#	200865
#	215973
#
# Disc length: 3096 seconds
#
# Revision: 0
# Processed by: cddbd v1.5PL3 Copyright (c) Steve Scherf et al.
# Submitted via: Feurio! 1.67 - http://www.feurio.com
#
DISCID=c60c160e
DTITLE=Jürgen Drews - Wahre Liebe
DYEAR=1900
DGENRE=
TTITLE0=Alles im Eimer
TTITLE1=König von Mallorca
TTITLE2=Barfuß durch den Sommer
TTITLE3=Das ist nicht fair
TTITLE4=Ich will´s jetzt wissen - ich muss Dich küssen
TTITLE5=Durch and Durch
TTITLE6=Irgendwann, irgendwo, irgendwie - seh´n wir uns wieder
TTITLE7=Keiner liebt mich
TTITLE8=Bleib´noch diese eine Nacht
TTITLE9=Mit dir sofort und ohne Ende
TTITLE10=Müssen denn Männer immer Helden sein
TTITLE11=So wie im Film
TTITLE12=Wahre Liebe
TTITLE13=Wieder alles im Griff
EXTD=
EXTT0=
EXTT1=
EXTT2=
EXTT3=
EXTT4=
EXTT5=
EXTT6=
EXTT7=
EXTT8=
EXTT9=
EXTT10=
EXTT11=
EXTT12=
EXTT13=
PLAYORDER=
